<?xml version="1.0" encoding="utf-8"?>
<!-- Generator: Adobe Illustrator 27.5.0, SVG Export Plug-In . SVG Version: 6.00 Build 0)  -->
<svg version="1.1" xmlns="http://www.w3.org/2000/svg" xmlns:xlink="http://www.w3.org/1999/xlink" x="0px" y="0px"
	 viewBox="0 0 500 500" style="enable-background:new 0 0 500 500;" xml:space="preserve">
<g id="BACKGROUND">
	<g>
		<rect style="fill:#EAF4EF;" width="500" height="500"/>
		
			<ellipse transform="matrix(0.7071 -0.7071 0.7071 0.7071 -97.1484 250.9413)" style="fill:#CFE2D6;" cx="254.339" cy="242.739" rx="171.581" ry="171.581"/>
	</g>
</g>
<g id="OBJECTS">
	<g>
		<g>
			<g>
				<path style="fill:none;stroke:#7DAF93;stroke-width:2.5319;stroke-miterlimit:10;" d="M349.322,329.618
					c0,0-4.39,11.08-2.09,30.731"/>
				<path style="fill:#A8CAB7;" d="M355.353,322.298c0,0-10.839-5.014-16.693,1.467c-5.853,6.481,3.972,16.306,10.453,21.115
					c6.481,4.808,11.916,19.442,22.369,22.787c0,0,6.063-11.707,1.672-23.391c-1.816-4.833,0.234-18.729-8.403-24.065
					C361.029,317.911,355.353,322.298,355.353,322.298z"/>
				<path style="fill:#7DAF93;" d="M356.758,321.366c-0.671,0.399-1.147,0.74-1.325,0.872c7.488,8.051,12.05,31.234,12.843,34.337
					C368.048,355.49,364.595,330.908,356.758,321.366z"/>
			</g>
			<path style="fill:#A8CAB7;" d="M160.982,356.868c0,0-2.991-18.443-18.227-16.718c-15.236,1.725-24.334-7.59-24.334-7.59
				s0.927,20.15,14.118,26.085C148.976,366.04,160.982,356.868,160.982,356.868z"/>
			<g>
				<path style="fill:#D3E4DB;" d="M122.532,339.229c4.577,5.322,11.118,8.795,17.958,9.616c3.492,0.426,6.981,0.94,10.438,1.749
					c1.727,0.407,3.45,0.876,5.135,1.538c1.666,0.68,3.37,1.503,4.71,2.98l0.467,0.589c0.135,0.215,0.256,0.443,0.382,0.666
					c0.225,0.456,0.312,0.967,0.458,1.448c0.135,0.894,0.301,1.797,0.373,2.674c0.202,1.769,0.319,3.525,0.433,5.284
					c0.217,3.516,0.379,7.027,0.464,10.539c0.184,7.025,0.257,14.044,0.156,21.069l-1.266,0.007l-0.289-10.514
					c-0.081-3.505-0.173-7.009-0.302-10.51c-0.134-3.5-0.221-7.003-0.43-10.491c-0.102-1.742-0.208-3.489-0.392-5.207
					c-0.066-0.873-0.216-1.697-0.335-2.539c-0.116-0.352-0.161-0.729-0.315-1.059l-0.259-0.482l-0.342-0.449
					c-0.998-1.167-2.515-1.995-4.063-2.657c-1.567-0.659-3.227-1.155-4.904-1.59c-3.359-0.871-6.814-1.442-10.263-2.024
					C133.281,348.764,126.733,344.868,122.532,339.229z"/>
			</g>
			<g>
				<g>
					<path style="fill:#A8CAB7;" d="M271.001,356.675l-3.075-0.085c2.949-106.978,28.249-174.898,43.068-205.864l2.775,1.328
						C299.055,182.799,273.934,250.265,271.001,356.675z"/>
				</g>
				<g>
					<path style="fill:#A8CAB7;" d="M271.263,322.004c0,0-10.616-31.62-51.816-41.951
						C219.447,280.053,266.505,318.942,271.263,322.004z"/>
				</g>
				<g>
					<path style="fill:#A8CAB7;" d="M273.764,307.072c0,0-5.947-32.82-45.227-48.983
						C228.537,258.089,269.497,303.356,273.764,307.072z"/>
				</g>
				<g>
					<path style="fill:#A8CAB7;" d="M274.806,287.007c0,0-2.744-33.241-40.277-53.128
						C234.529,233.879,270.919,282.896,274.806,287.007z"/>
				</g>
				<g>
					<path style="fill:#A8CAB7;" d="M279.418,265.484c0,0-2.744-33.241-40.277-53.128
						C239.141,212.357,275.531,261.373,279.418,265.484z"/>
				</g>
				<g>
					<path style="fill:#A8CAB7;" d="M282.767,246.697c0,0,1.06-33.337-33.964-57.37C248.803,189.328,279.373,242.17,282.767,246.697
						z"/>
				</g>
				<g>
					<path style="fill:#A8CAB7;" d="M286.605,229.338c0,0,3.212-28.908-25.583-52.206
						C261.022,177.133,283.966,225.17,286.605,229.338z"/>
				</g>
				<g>
					<path style="fill:#A8CAB7;" d="M292.157,207.508c0,0,2.65-23.852-21.109-43.075
						C271.048,164.434,289.979,204.069,292.157,207.508z"/>
				</g>
				<g>
					<path style="fill:#A8CAB7;" d="M297.223,191.827c0,0,2.352-21.163-18.729-38.219
						C278.493,153.608,295.291,188.776,297.223,191.827z"/>
				</g>
				<g>
					<path style="fill:#A8CAB7;" d="M300.674,182.773c0,0,7.444-19.95-8.839-41.634
						C291.835,141.139,299.545,179.342,300.674,182.773z"/>
				</g>
				<g>
					<path style="fill:#A8CAB7;" d="M303.177,170.312c0,0,12.015-17.58,1.413-42.538
						C304.591,127.774,302.905,166.71,303.177,170.312z"/>
				</g>
				<g>
					<path style="fill:#A8CAB7;" d="M308.099,161.956c0,0,16.423-19.145,11.52-45.815
						C319.62,116.141,308.619,158.382,308.099,161.956z"/>
				</g>
				<g>
					<path style="fill:#A8CAB7;" d="M338.24,134.215c0,0-20.849,4.326-30.529,29.656
						C307.711,163.871,335.938,136.998,338.24,134.215z"/>
				</g>
				<g>
					<path style="fill:#A8CAB7;" d="M330.033,153.608c0,0-20.849,4.326-30.529,29.656
						C299.504,183.264,327.731,156.391,330.033,153.608z"/>
				</g>
				<g>
					<path style="fill:#A8CAB7;" d="M327.372,169.458c0,0-21.086,2.963-32.39,27.612
						C294.982,197.07,324.893,172.086,327.372,169.458z"/>
				</g>
				<g>
					<path style="fill:#A8CAB7;" d="M325.674,185.148c0,0-22.827,1.702-36.679,27.35
						C288.995,212.498,322.831,187.793,325.674,185.148z"/>
				</g>
				<g>
					<path style="fill:#A8CAB7;" d="M329.175,198.604c0,0-27.612,2.058-44.367,33.084
						C284.808,231.688,325.737,201.804,329.175,198.604z"/>
				</g>
				<g>
					<path style="fill:#A8CAB7;" d="M329.862,213.38c0,0-30.914,2.305-49.674,37.041
						C280.188,250.421,326.013,216.962,329.862,213.38z"/>
				</g>
				<g>
					<path style="fill:#A8CAB7;" d="M325.674,231.901c0,0-30.914,2.305-49.674,37.041C276,268.941,321.824,235.483,325.674,231.901z
						"/>
				</g>
				<g>
					<path style="fill:#A8CAB7;" d="M324.341,250.421c0,0-30.914,2.305-49.674,37.041
						C274.667,287.461,320.491,254.003,324.341,250.421z"/>
				</g>
				<g>
					<path style="fill:#A8CAB7;" d="M321.941,268.941c0,0-30.914,2.305-49.674,37.041
						C272.267,305.982,318.091,272.523,321.941,268.941z"/>
				</g>
				<g>
					<path style="fill:#A8CAB7;" d="M321.056,284.963c0,0-30.914,2.305-49.674,37.041
						C271.382,322.004,317.207,288.546,321.056,284.963z"/>
				</g>
			</g>
			<g>
				<path style="fill:#A8CAB7;" d="M360.804,249.64c-5.114,3.847-10.804,6.796-16.986,8.45c-3.417,0.915-6.906,2.476-10.2,4.994
					c-8.606,6.578-9.981,23.251-9.981,23.251l41.751-14.347c0,0,24.25-4.265,33.254-14.523c3.176-3.619,5.71-10.204,5.71-10.204
					S378.621,236.237,360.804,249.64z"/>
				<path style="fill:#7DAF93;" d="M323.38,277.46c4.581-5.892,10.03-7.916,25.373-5.875c4.398,0.585,9.494,1.833,17.749-0.028
					c0,0-42.8,16.319-46.861,26.943l-0.12-0.445C317.606,290.96,318.87,283.261,323.38,277.46z"/>
				<g>
					<path style="fill:#7DAF93;" d="M396.884,250.145c-4.953,3.085-9.999,6.02-15.09,8.875c-5.099,2.84-10.243,5.607-15.476,8.205
						c-5.238,2.585-10.52,5.094-15.932,7.325c-5.414,2.219-10.919,4.254-16.6,5.808l-0.396-1.562
						c5.614-1.397,11.117-3.287,16.546-5.368c5.428-2.093,10.749-4.471,16.031-6.928c5.278-2.47,10.476-5.114,15.634-7.833
						C386.752,255.932,391.862,253.115,396.884,250.145z"/>
				</g>
			</g>
			<g>
				<path style="fill:#A8CAB7;" d="M200.826,289.08c-6.944-4.712-11.04-12.545-10.997-20.937c0.027-5.32-0.532-10.865-2.614-15.875
					c-7.496-17.68-19.821-31.651-31.544-29.599c-11.629,1.964-17.515,23.52-8.06,46.119c2.727,6.564,7.879,11.298,13.303,14.918
					c7.715,5.15,12.57,13.489,13.953,22.661c0.314,2.081,0.94,4.038,2.128,5.691c2.836,3.956,6.849,6.546,10.922,8.46
					c5.833,2.739,10.542,7.526,12.883,13.53c0.403,1.035,1.084,1.85,1.679,2.725c7.524,11.06,23.399,12.976,27.838,7.135
					c4.48-5.865,2.572-17.226-8.891-25.874c-0.385-0.291-0.738-0.625-1.181-0.859c-6.287-3.326-10.829-9.134-12.341-16.084
					c-0.683-3.14-1.729-6.189-3.529-8.699C203.443,291.097,202.21,290.019,200.826,289.08z"/>
				<path style="fill:#7DAF93;" d="M156.092,222.614c1.927,13.024,7.241,38.343,20.561,52.273
					c18.461,19.307,12.048,27.87,19.923,37.695c6.498,8.107,18.318,26.067,33.927,31.068c4.233-5.935,2.221-17.09-9.077-25.613
					c-0.386-0.291-0.738-0.625-1.181-0.859c-6.287-3.326-10.829-9.134-12.341-16.084c-0.683-3.14-1.729-6.189-3.529-8.699
					c-0.932-1.297-2.164-2.374-3.548-3.313c-6.944-4.712-11.04-12.545-10.997-20.936c0.027-5.32-0.532-10.865-2.614-15.875
					C179.809,234.801,167.689,220.963,156.092,222.614z"/>
				<g>
					<path style="fill:#7DAF93;" d="M142.978,249.066c7.721,3.281,15.578,6.128,23.08,5.451l-0.085-0.937
						c-7.415,0.668-15.294-2.248-23.038-5.555C142.946,248.37,142.96,248.717,142.978,249.066z"/>
					<path style="fill:#1C9585;" d="M201.879,335.922c0.201,0.284,0.405,0.565,0.6,0.852c0.143,0.21,0.294,0.41,0.443,0.613
						c7.402,3.075,15.203,5.066,23.234,3.401l-0.191-0.922C217.664,341.587,209.553,339.268,201.879,335.922z"/>
					<path style="fill:#7DAF93;" d="M197.181,309.976c-7.637,1.584-15.114-0.253-22.238-3.163c0.065,0.373,0.138,0.744,0.226,1.107
						c7.094,2.831,14.544,4.566,22.203,2.978L197.181,309.976z"/>
					<path style="fill:#7DAF93;" d="M169.017,258.618c-8.83,1.832-17.445-0.91-25.549-4.594c0.054,0.369,0.111,0.739,0.172,1.111
						c8.088,3.623,16.688,6.247,25.567,4.406L169.017,258.618z"/>
				</g>
			</g>
			<g>
				<path style="fill:#7DAF93;" d="M213.588,267.763c0,0-33.61-18.293-20.635-50.86c9.091-22.819,10.449-29.352,12.821-37.959
					c6.72-24.387,22.262-19.507,22.262-19.507s-8.065,27.303-2.906,47.947C234.223,243.774,213.588,267.763,213.588,267.763z"/>
				<g>
					<path style="fill:#A8CAB7;" d="M216.93,172.685c-0.822,7.947-1.463,15.905-1.919,23.872
						c-0.506,7.963-0.849,15.934-1.028,23.906c-0.431,15.94-0.231,31.889,0.705,47.785c0.463,7.947,1.107,15.882,1.996,23.788
						c0.933,7.9,2.091,15.768,3.468,23.596c1.448,7.813,3.159,15.577,5.254,23.238c2.099,7.659,4.618,15.193,7.506,22.592
						l-1.825,0.771c-3.23-7.36-5.879-14.959-8.212-22.645c-2.24-7.716-4.024-15.551-5.578-23.424
						c-1.521-7.882-2.618-15.834-3.537-23.798c-0.868-7.971-1.489-15.963-1.928-23.963c-0.406-8.002-0.507-16.013-0.496-24.018
						c0.036-8.005,0.208-16.009,0.662-23.998c0.442-7.989,1.048-15.966,1.817-23.925C214.673,188.51,215.588,180.564,216.93,172.685
						z"/>
				</g>
			</g>
			<g>
				<g>
					<path style="fill:#7DAF93;" d="M211.629,364.623c-34.996-31.893-64.364-44.662-78.754-49.434l0.431-1.299
						c14.493,4.807,44.061,17.658,79.245,49.722L211.629,364.623z"/>
				</g>
				<g>
					<path style="fill:#7DAF93;" d="M200.441,354.009c0,0-6.855-13.158,2.548-29.546
						C202.989,324.464,200.928,351.54,200.441,354.009z"/>
				</g>
				<g>
					<path style="fill:#7DAF93;" d="M194.885,350.203c0,0-8.68-12.032-1.738-29.604C193.147,320.599,195.011,347.69,194.885,350.203
						z"/>
				</g>
				<g>
					<path style="fill:#7DAF93;" d="M188.135,344.346c0,0-9.803-11.136-4.594-29.297
						C183.541,315.049,188.017,341.832,188.135,344.346z"/>
				</g>
				<g>
					<path style="fill:#7DAF93;" d="M179.816,339.182c0,0-9.803-11.136-4.594-29.297
						C175.222,309.885,179.698,336.669,179.816,339.182z"/>
				</g>
				<g>
					<path style="fill:#7DAF93;" d="M172.764,334.458c0,0-11.008-9.947-7.901-28.583
						C164.863,305.875,172.361,331.974,172.764,334.458z"/>
				</g>
				<g>
					<path style="fill:#7DAF93;" d="M166.018,330.332c0,0-10.253-7.891-8.832-24.305C157.186,306.027,165.497,328.2,166.018,330.332
						z"/>
				</g>
				<g>
					<path style="fill:#7DAF93;" d="M157.311,325.375c0,0-8.46-6.51-7.287-20.054C150.024,305.321,156.881,323.616,157.311,325.375z
						"/>
				</g>
				<g>
					<path style="fill:#7DAF93;" d="M150.724,322.159c0,0-7.506-5.777-6.466-17.793
						C144.258,304.366,150.342,320.599,150.724,322.159z"/>
				</g>
				<g>
					<path style="fill:#7DAF93;" d="M146.758,320.472c0,0-8.689-3.771-10.612-15.678
						C136.146,304.793,146.007,319.051,146.758,320.472z"/>
				</g>
				<g>
					<path style="fill:#7DAF93;" d="M141.993,317.429c0,0-9.34-1.575-14.065-12.672C127.928,304.756,140.923,316.23,141.993,317.429
						z"/>
				</g>
				<g>
					<path style="fill:#7DAF93;" d="M137.797,316.427c0,0-11.201-0.646-18.233-10.446
						C119.564,305.982,136.492,315.491,137.797,316.427z"/>
				</g>
				<g>
					<path style="fill:#7DAF93;" d="M119.609,317.524c0,0,7.819-5.345,18.921-0.631
						C138.531,316.894,121.211,317.645,119.609,317.524z"/>
				</g>
				<g>
					<path style="fill:#7DAF93;" d="M128.355,320.879c0,0,7.819-5.345,18.921-0.631C147.276,320.248,129.957,321,128.355,320.879z"
						/>
				</g>
				<g>
					<path style="fill:#7DAF93;" d="M134.254,324.917c0,0,7.456-5.841,18.841-1.857
						C153.095,323.059,135.861,324.934,134.254,324.917z"/>
				</g>
				<g>
					<path style="fill:#7DAF93;" d="M139.805,329.214c0,0,7.589-6.788,20.08-3.312C159.885,325.901,141.53,329.119,139.805,329.214z
						"/>
				</g>
				<g>
					<path style="fill:#7DAF93;" d="M143.036,334.488c0,0,9.179-8.211,24.289-4.007
						C167.325,330.481,145.122,334.373,143.036,334.488z"/>
				</g>
				<g>
					<path style="fill:#7DAF93;" d="M147.558,339.267c0,0,10.277-9.193,27.195-4.486
						C174.753,334.781,149.893,339.139,147.558,339.267z"/>
				</g>
				<g>
					<path style="fill:#7DAF93;" d="M154.784,343.64c0,0,10.277-9.193,27.195-4.486C181.979,339.154,157.12,343.512,154.784,343.64z
						"/>
				</g>
				<g>
					<path style="fill:#7DAF93;" d="M161.129,348.927c0,0,10.277-9.193,27.194-4.486
						C188.323,344.441,163.464,348.799,161.129,348.927z"/>
				</g>
				<g>
					<path style="fill:#7DAF93;" d="M167.803,353.873c0,0,10.277-9.193,27.195-4.486
						C194.998,349.387,170.139,353.745,167.803,353.873z"/>
				</g>
				<g>
					<path style="fill:#7DAF93;" d="M173.209,358.533c0,0,10.277-9.194,27.195-4.486
						C200.404,354.047,175.545,358.405,173.209,358.533z"/>
				</g>
			</g>
			<g>
				<g>
					<path style="fill:#7DAF93;" d="M236.556,373.544c46.18-40.128,84.109-55.248,102.608-60.688l-0.469-1.748
						c-18.631,5.48-56.818,20.697-103.247,61.039L236.556,373.544z"/>
				</g>
				<g>
					<path style="fill:#7DAF93;" d="M251.345,360.162c0,0,9.452-17.022-1.488-39.327
						C249.857,320.835,250.873,356.858,251.345,360.162z"/>
				</g>
				<g>
					<path style="fill:#7DAF93;" d="M258.602,355.458c0,0,11.697-15.417,3.942-39.141
						C262.544,316.317,258.59,352.118,258.602,355.458z"/>
				</g>
				<g>
					<path style="fill:#7DAF93;" d="M267.492,348.108c0,0,13.066-14.16,7.538-38.558
						C275.031,309.55,267.789,344.783,267.492,348.108z"/>
				</g>
				<g>
					<path style="fill:#7DAF93;" d="M278.327,341.776c0,0,13.066-14.16,7.538-38.558
						C285.865,303.217,278.624,338.45,278.327,341.776z"/>
				</g>
				<g>
					<path style="fill:#7DAF93;" d="M287.533,335.947c0,0,14.521-12.509,11.683-37.408
						C299.216,298.539,288.189,332.678,287.533,335.947z"/>
				</g>
				<g>
					<path style="fill:#7DAF93;" d="M296.316,330.892c0,0,13.444-9.829,12.611-31.679
						C308.926,299.213,297.101,328.098,296.316,330.892z"/>
				</g>
				<g>
					<path style="fill:#7DAF93;" d="M307.63,324.856c0,0,11.092-8.11,10.405-26.138C318.035,298.718,308.278,322.551,307.63,324.856
						z"/>
				</g>
				<g>
					<path style="fill:#7DAF93;" d="M316.158,320.999c0,0,9.842-7.196,9.232-23.192C325.39,297.807,316.733,318.953,316.158,320.999
						z"/>
				</g>
				<g>
					<path style="fill:#7DAF93;" d="M321.278,319.005c0,0,11.221-4.464,14.356-20.132
						C335.634,298.873,322.312,317.168,321.278,319.005z"/>
				</g>
				<g>
					<path style="fill:#7DAF93;" d="M327.489,315.264c0,0,11.916-1.513,18.551-15.935
						C346.04,299.33,328.914,313.741,327.489,315.264z"/>
				</g>
				<g>
					<path style="fill:#7DAF93;" d="M332.86,314.195c0,0,14.218-0.166,23.697-12.725C356.557,301.47,334.568,313.034,332.86,314.195
						z"/>
				</g>
				<g>
					<path style="fill:#7DAF93;" d="M355.821,316.77c0,0-9.584-7.568-23.917-2.001C331.904,314.768,353.786,316.832,355.821,316.77z
						"/>
				</g>
				<g>
					<path style="fill:#7DAF93;" d="M344.552,320.678c0,0-9.584-7.568-23.917-2.001C320.635,318.677,342.517,320.74,344.552,320.678
						z"/>
				</g>
				<g>
					<path style="fill:#7DAF93;" d="M336.846,325.668c0,0-9.095-8.203-23.742-3.623
						C313.104,322.046,334.811,325.592,336.846,325.668z"/>
				</g>
				<g>
					<path style="fill:#7DAF93;" d="M329.566,331.023c0,0-9.208-9.467-25.226-5.628C304.34,325.395,327.389,330.792,329.566,331.023
						z"/>
				</g>
				<g>
					<path style="fill:#7DAF93;" d="M325.166,337.817c0,0-11.138-11.452-30.514-6.808
						C294.652,331.009,322.532,337.537,325.166,337.817z"/>
				</g>
				<g>
					<path style="fill:#7DAF93;" d="M319.16,343.874c0,0-12.47-12.821-34.164-7.622C284.996,336.252,316.211,343.561,319.16,343.874
						z"/>
				</g>
				<g>
					<path style="fill:#7DAF93;" d="M309.755,349.226c0,0-12.47-12.821-34.164-7.622
						C275.591,341.604,306.806,348.913,309.755,349.226z"/>
				</g>
				<g>
					<path style="fill:#7DAF93;" d="M301.411,355.846c0,0-12.47-12.821-34.164-7.622
						C267.248,348.224,298.462,355.532,301.411,355.846z"/>
				</g>
				<g>
					<path style="fill:#7DAF93;" d="M292.671,361.991c0,0-12.47-12.821-34.164-7.622
						C258.507,354.369,289.722,361.678,292.671,361.991z"/>
				</g>
				<g>
					<path style="fill:#7DAF93;" d="M285.553,367.837c0,0-12.47-12.821-34.164-7.622
						C251.389,360.215,282.604,367.523,285.553,367.837z"/>
				</g>
			</g>
		</g>
	</g>
	<g>
		<g>
			<g>
				<path style="fill:#FFFFFF;" d="M387.608,145.962c-3.775-2.891-6.331-7.081-8.062-11.445c-0.91-2.143-2.427-4.012-4.316-5.342
					c-1.885-1.338-4.14-2.117-6.428-2.254c-2.292-0.149-4.593,0.38-6.607,1.437c-1.002,0.539-1.934,1.207-2.755,1.992
					c-0.793,0.803-1.665,1.703-2.583,2.451c-1.835,1.546-3.894,2.803-6.041,3.839c-1.074,0.519-2.172,0.984-3.286,1.403
					c-0.557,0.213-1.069,0.429-1.599,0.658c-0.505,0.271-1.035,0.495-1.514,0.814c-3.967,2.331-6.966,6.215-8.533,10.574
					c-0.788,2.184-1.252,4.492-1.341,6.822c-0.062,2.328,0.199,4.677,0.863,6.915c0.658,2.237,1.648,4.391,3.036,6.271
					c0.681,0.947,1.455,1.827,2.311,2.618c0.833,0.815,1.805,1.467,2.729,2.217c3.672,2.968,6.829,6.696,8.706,11.096
					c0.483,1.089,0.839,2.237,1.171,3.373l0.504,1.677l0.587,1.648c0.832,2.177,1.864,4.277,3.127,6.224
					c2.505,3.88,6.044,7.199,10.361,8.767l0.807,0.287c0.272,0.084,0.553,0.141,0.828,0.213l0.83,0.205l0.847,0.121
					c0.283,0.035,0.563,0.094,0.847,0.11l0.855,0.016c0.569-0.01,1.141,0.072,1.706-0.012c2.284-0.145,4.483-0.873,6.555-1.827
					c4.071-2.109,7.522-5.386,10.057-9.262c5.123-7.749,7.41-17.241,7.13-26.555c-0.145-4.668-1.018-9.334-2.724-13.705
					C393.931,152.975,391.296,148.903,387.608,145.962z M387.675,145.877c3.754,2.908,6.411,6.996,8.28,11.317
					c1.843,4.358,2.861,9.054,3.16,13.786c0.589,9.448-1.623,19.218-6.914,27.215c-2.611,3.993-6.159,7.469-10.488,9.655
					c-2.199,0.996-4.543,1.748-6.982,1.885c-0.603,0.082-1.214-0.005-1.82,0l-0.91-0.027c-0.302-0.02-0.601-0.083-0.902-0.123
					l-0.9-0.137l-0.883-0.224c-0.293-0.079-0.59-0.143-0.879-0.235l-0.855-0.311c-4.584-1.692-8.208-5.247-10.711-9.278
					c-1.265-2.025-2.284-4.191-3.094-6.425l-0.569-1.689l-0.483-1.714c-0.31-1.128-0.633-2.239-1.087-3.313
					c-1.763-4.312-4.764-8.087-8.398-11.029c-0.896-0.74-1.886-1.414-2.734-2.253c-0.868-0.813-1.65-1.714-2.337-2.683
					c-1.392-1.925-2.444-4.086-3.126-6.361c-1.356-4.552-1.263-9.524,0.268-14.045c0.751-2.266,1.886-4.406,3.342-6.311
					c1.443-1.913,3.235-3.579,5.299-4.835c0.502-0.337,1.058-0.58,1.589-0.868c0.547-0.242,1.12-0.487,1.661-0.697
					c1.087-0.417,2.156-0.878,3.198-1.391c2.083-1.027,4.059-2.26,5.858-3.712c0.917-0.731,1.695-1.516,2.567-2.376
					c0.891-0.831,1.899-1.533,2.978-2.095c2.163-1.121,4.646-1.587,7.052-1.364c2.408,0.214,4.743,1.104,6.66,2.547
					c1.922,1.436,3.426,3.406,4.296,5.623C381.426,138.8,383.964,142.955,387.675,145.877z"/>
			</g>
		</g>
		<g>
			<path style="fill:#E1FAFF;" d="M190.549,97.122c-2.515,4.035-6.439,6.982-10.616,9.126c-2.046,1.112-3.76,2.802-4.902,4.81
				c-1.151,2.005-1.709,4.325-1.625,6.615c0.072,2.295,0.82,4.535,2.066,6.438c0.633,0.945,1.388,1.809,2.248,2.551
				c0.876,0.712,1.855,1.494,2.688,2.336c1.716,1.678,3.165,3.606,4.403,5.644c0.62,1.019,1.189,2.067,1.712,3.136
				c0.266,0.534,0.53,1.023,0.809,1.528c0.318,0.476,0.593,0.983,0.956,1.429c2.702,3.724,6.857,6.335,11.346,7.476
				c2.249,0.574,4.592,0.814,6.92,0.678c2.323-0.162,4.636-0.648,6.8-1.524c2.163-0.87,4.212-2.063,5.95-3.626
				c0.878-0.769,1.679-1.624,2.384-2.552c0.731-0.908,1.286-1.938,1.944-2.93c2.601-3.941,6.008-7.441,10.207-9.734
				c1.037-0.586,2.146-1.05,3.245-1.49l1.621-0.662l1.584-0.743c2.087-1.037,4.077-2.267,5.894-3.711
				c3.621-2.867,6.584-6.709,7.73-11.156l0.208-0.831c0.058-0.279,0.087-0.564,0.132-0.845l0.124-0.846l0.039-0.854
				c0.008-0.285,0.039-0.569,0.028-0.854l-0.066-0.852c-0.065-0.565-0.038-1.143-0.176-1.697c-0.364-2.259-1.3-4.378-2.449-6.349
				c-2.491-3.85-6.085-6.969-10.187-9.119c-8.206-4.354-17.874-5.716-27.118-4.542c-4.632,0.593-9.193,1.912-13.379,4.03
				C196.921,90.154,193.121,93.169,190.549,97.122z M190.458,97.064c2.533-4.017,6.346-7.055,10.468-9.33
				c4.161-2.254,8.736-3.719,13.418-4.471c9.348-1.495,19.285-0.233,27.754,4.264c4.225,2.215,8.027,5.412,10.619,9.511
				c1.203,2.093,2.177,4.354,2.548,6.768c0.139,0.592,0.112,1.208,0.175,1.811l0.061,0.909c0.009,0.303-0.025,0.606-0.036,0.909
				l-0.05,0.909l-0.138,0.9c-0.05,0.299-0.085,0.601-0.149,0.897l-0.227,0.881c-1.243,4.726-4.433,8.675-8.204,11.554
				c-1.894,1.454-3.952,2.676-6.098,3.698l-1.626,0.729l-1.66,0.646c-1.092,0.417-2.168,0.845-3.193,1.401
				c-4.122,2.17-7.591,5.52-10.169,9.42c-0.65,0.963-1.226,2.013-1.979,2.938c-0.725,0.942-1.548,1.807-2.445,2.584
				c-1.782,1.571-3.832,2.826-6.031,3.723c-4.401,1.787-9.358,2.174-14.006,1.085c-2.327-0.529-4.567-1.453-6.603-2.719
				c-2.043-1.253-3.874-2.876-5.323-4.809c-0.384-0.467-0.679-0.997-1.017-1.498c-0.294-0.521-0.592-1.068-0.854-1.586
				c-0.519-1.042-1.081-2.061-1.692-3.049c-1.222-1.975-2.64-3.823-4.259-5.473c-0.816-0.842-1.672-1.542-2.612-2.327
				c-0.913-0.807-1.709-1.743-2.372-2.762c-1.324-2.045-2.026-4.471-2.036-6.888c-0.019-2.417,0.643-4.827,1.894-6.874
				c1.244-2.051,3.061-3.738,5.184-4.817C184.015,103.965,187.907,101.039,190.458,97.064z"/>
		</g>
		<g>
			<path style="fill:#FFFFFF;" d="M175.644,198.453c-3.295,2.718-7.312,4.559-11.549,5.236c-1.059,0.173-2.137,0.236-3.179,0.359
				c-1.048,0.132-2.085,0.341-3.109,0.596c-2.044,0.529-4.017,1.311-5.883,2.287c-7.451,3.95-13.264,10.742-16.272,18.578
				c-1.5,3.913-2.344,8.137-2.056,12.346c0.063,2.11,0.55,4.179,1.173,6.188c0.716,1.983,1.713,3.861,2.998,5.536
				c2.607,3.311,6.423,5.653,10.551,6.499c4.152,0.823,8.484,0.244,12.43-1.201c3.942-1.505,7.539-3.846,10.601-6.727
				c0.379-0.364,0.775-0.712,1.141-1.089l1.054-1.174c0.731-0.758,1.351-1.609,1.981-2.45c1.294-1.664,2.227-3.524,3.506-5.329
				c1.27-1.77,2.789-3.358,4.488-4.719c0.849-0.681,1.743-1.307,2.673-1.873c0.466-0.282,0.94-0.549,1.421-0.804
				c0.462-0.246,0.914-0.498,1.359-0.769c3.551-2.173,6.579-5.201,8.816-8.731c1.094-1.777,2.051-3.644,2.74-5.615
				c0.668-1.975,1.117-4.02,1.3-6.091c0.345-4.12-0.639-8.465-3.35-11.63c-1.348-1.569-3.092-2.806-5.066-3.505
				c-1.976-0.688-4.108-0.923-6.212-0.773C182.965,193.915,178.955,195.818,175.644,198.453z M175.575,198.369
				c3.29-2.702,7.309-4.629,11.598-5.071c2.135-0.219,4.328-0.051,6.401,0.599c2.07,0.661,3.96,1.893,5.439,3.503
				c3.015,3.245,4.123,7.862,3.85,12.177c-0.132,2.179-0.601,4.322-1.294,6.383c-0.712,2.058-1.7,4.004-2.833,5.855
				c-2.32,3.662-5.431,6.863-9.178,9.101c-0.467,0.28-0.947,0.541-1.428,0.792c-0.462,0.24-0.918,0.492-1.366,0.757
				c-0.894,0.534-1.754,1.125-2.572,1.769c-1.636,1.289-3.102,2.794-4.33,4.475c-1.208,1.654-2.213,3.627-3.571,5.303
				c-0.664,0.852-1.316,1.711-2.08,2.477l-1.103,1.182c-0.382,0.38-0.794,0.729-1.19,1.094c-3.191,2.891-6.911,5.213-10.964,6.673
				c-4.063,1.412-8.486,1.86-12.712,1.015c-0.53-0.088-1.035-0.29-1.553-0.429c-0.507-0.176-1.049-0.259-1.525-0.516
				c-0.97-0.463-1.989-0.833-2.862-1.472l-1.356-0.871l-1.238-1.032c-0.431-0.326-0.798-0.719-1.158-1.119
				c-0.356-0.402-0.756-0.769-1.075-1.201c-1.331-1.695-2.358-3.607-3.124-5.619c-0.687-2.032-1.236-4.139-1.356-6.295
				c-0.396-4.301,0.348-8.656,1.816-12.706c2.981-8.088,9.04-15.088,16.809-18.872c1.939-0.938,3.979-1.669,6.076-2.144
				c1.051-0.228,2.111-0.408,3.18-0.51c1.077-0.093,2.13-0.122,3.18-0.26C168.261,202.854,172.263,201.023,175.575,198.369z"/>
		</g>
		<g>
			<path style="fill:#BDD6CB;" d="M143.129,155.557c-4.38-2.431-9.825-2.63-14.351-0.763c-1.144,0.445-2.2,1.071-3.228,1.722
				c-0.985,0.714-1.965,1.451-2.789,2.344c-1.692,1.734-3.059,3.802-3.896,6.092c-0.846,2.283-1.228,4.747-1.091,7.2
				c0.051,1.229,0.285,2.442,0.582,3.639c0.19,0.585,0.383,1.174,0.61,1.747c0.271,0.553,0.478,1.141,0.802,1.669
				c1.178,2.174,2.882,4.05,4.864,5.518c1.982,1.485,4.346,2.406,6.756,2.841c4.844,0.848,9.97-0.444,13.776-3.449
				c0.476-0.376,0.958-0.743,1.363-1.197c0.414-0.441,0.881-0.835,1.224-1.337c0.743-0.909,1.442-2.025,2.355-2.967
				c0.875-0.95,1.965-1.753,3.011-2.419c1.015-0.635,1.889-1.472,2.671-2.37c1.553-1.817,2.537-4.112,2.765-6.478
				c0.105-1.183,0.008-2.384-0.313-3.53c-0.313-1.152-0.907-2.209-1.622-3.172c-1.48-1.909-3.798-3.117-6.237-3.442
				c-0.614-0.093-1.221-0.105-1.857-0.109c-0.631-0.023-1.259-0.095-1.876-0.22C145.411,156.625,144.223,156.171,143.129,155.557z
				 M143.182,155.462c1.098,0.585,2.281,1.008,3.501,1.228c0.61,0.11,1.228,0.167,1.846,0.176c0.613-0.002,1.258-0.021,1.885,0.037
				c2.517,0.201,5.028,1.32,6.751,3.282c0.828,0.989,1.562,2.105,1.94,3.367c0.398,1.248,0.552,2.569,0.48,3.876
				c-0.052,1.313-0.403,2.596-0.909,3.795c-0.508,1.2-1.18,2.337-2.031,3.325c-0.846,0.986-1.796,1.901-2.898,2.602
				c-1.054,0.683-1.982,1.384-2.827,2.253c-0.847,0.843-1.493,1.852-2.341,2.869c-0.376,0.527-0.875,0.943-1.324,1.404
				c-0.439,0.474-0.956,0.859-1.467,1.251c-4.085,3.145-9.549,4.316-14.517,3.224c-2.488-0.521-4.848-1.598-6.867-3.117
				c-0.99-0.782-1.949-1.61-2.757-2.582c-0.44-0.453-0.815-0.96-1.186-1.471c-0.399-0.491-0.691-1.054-1.024-1.591
				c-2.511-4.388-3.059-9.873-1.421-14.742c1.681-4.847,5.66-8.886,10.521-10.493C133.374,152.469,138.789,153.065,143.182,155.462z
				"/>
		</g>
		<g>
			<path style="fill:#BDD6CB;" d="M105.069,285.919c1.224-2.389,1.28-5.306,0.204-7.711c-1.049-2.415-3.122-4.324-5.592-5.173
				c-2.46-0.837-5.343-0.685-7.635,0.688c-2.292,1.333-3.971,3.726-4.318,6.354c-0.405,2.612,0.383,5.345,2.048,7.341
				c0.403,0.51,0.887,0.954,1.397,1.352c0.498,0.385,1.107,0.745,1.625,1.221c0.522,0.456,0.969,1.029,1.341,1.581
				c0.355,0.536,0.817,0.992,1.31,1.399c0.997,0.807,2.243,1.302,3.515,1.391c1.275,0.093,2.573-0.306,3.568-1.134
				c1.003-0.821,1.618-2.082,1.757-3.396c0.078-0.652-0.023-1.341,0.123-2.008C104.529,287.159,104.756,286.515,105.069,285.919z
				 M105.121,285.945c-0.298,0.597-0.508,1.238-0.609,1.896c-0.124,0.659-0.028,1.321-0.061,2.005
				c-0.072,1.353-0.636,2.717-1.664,3.669c-1.011,0.97-2.449,1.457-3.851,1.402c-1.41-0.042-2.769-0.612-3.862-1.475
				c-0.541-0.44-1.046-0.937-1.438-1.518c-0.382-0.556-0.771-1.043-1.249-1.484c-0.464-0.442-1.015-0.775-1.573-1.215
				c-0.537-0.432-1.043-0.912-1.464-1.459c-1.748-2.148-2.433-5.063-1.938-7.742c0.244-1.342,0.788-2.624,1.574-3.729
				c0.794-1.099,1.803-2.036,2.957-2.746c2.318-1.41,5.253-1.783,7.889-0.974c2.627,0.832,4.841,2.915,5.781,5.494
				C106.575,280.638,106.361,283.559,105.121,285.945z"/>
		</g>
		<g>
			<g>
				<path style="fill:#FFFFFF;" d="M392.292,307.709c-4.38-2.431-9.825-2.629-14.351-0.763c-1.144,0.445-2.2,1.071-3.228,1.722
					c-0.984,0.714-1.965,1.451-2.79,2.344c-1.692,1.734-3.059,3.802-3.896,6.092c-0.846,2.283-1.228,4.747-1.092,7.2
					c0.051,1.229,0.285,2.442,0.582,3.639c0.19,0.586,0.383,1.174,0.61,1.746c0.271,0.554,0.478,1.141,0.801,1.669
					c1.178,2.174,2.882,4.05,4.864,5.518c1.982,1.485,4.346,2.406,6.756,2.841c4.844,0.848,9.97-0.444,13.776-3.449
					c0.476-0.376,0.958-0.743,1.363-1.197c0.414-0.441,0.881-0.835,1.224-1.337c0.743-0.909,1.442-2.025,2.355-2.967
					c0.875-0.95,1.965-1.753,3.011-2.419c1.015-0.635,1.889-1.472,2.671-2.371c1.553-1.817,2.537-4.112,2.765-6.478
					c0.105-1.183,0.008-2.384-0.313-3.53c-0.313-1.152-0.906-2.209-1.622-3.172c-1.48-1.909-3.798-3.117-6.237-3.443
					c-0.614-0.093-1.221-0.105-1.857-0.109c-0.631-0.023-1.259-0.095-1.877-0.22C394.575,308.776,393.387,308.322,392.292,307.709z
					 M392.345,307.613c1.098,0.585,2.281,1.008,3.501,1.228c0.61,0.11,1.228,0.167,1.846,0.176c0.613-0.002,1.258-0.021,1.885,0.037
					c2.517,0.201,5.028,1.32,6.751,3.282c0.828,0.989,1.562,2.105,1.94,3.366c0.398,1.248,0.552,2.569,0.48,3.876
					c-0.052,1.313-0.402,2.596-0.909,3.795c-0.508,1.2-1.18,2.337-2.03,3.325c-0.846,0.986-1.797,1.901-2.898,2.602
					c-1.054,0.683-1.982,1.384-2.827,2.253c-0.847,0.843-1.493,1.852-2.341,2.869c-0.375,0.527-0.875,0.943-1.324,1.404
					c-0.439,0.474-0.956,0.859-1.467,1.251c-4.085,3.145-9.549,4.316-14.517,3.224c-2.488-0.521-4.848-1.598-6.867-3.117
					c-0.989-0.782-1.949-1.61-2.757-2.582c-0.44-0.453-0.815-0.96-1.186-1.471c-0.399-0.491-0.691-1.054-1.024-1.591
					c-2.511-4.388-3.059-9.873-1.421-14.742c1.681-4.847,5.66-8.887,10.521-10.493C382.537,304.621,387.952,305.216,392.345,307.613
					z"/>
			</g>
		</g>
		<g>
			<path style="fill:#BDD6CB;" d="M276.994,124.687c-1.619,4.74-0.851,10.135,1.785,14.26c0.64,1.047,1.443,1.976,2.265,2.872
				c0.876,0.843,1.775,1.677,2.8,2.331c2.006,1.359,4.283,2.339,6.685,2.758c2.396,0.429,4.89,0.37,7.28-0.198
				c1.201-0.267,2.353-0.712,3.479-1.216c0.543-0.29,1.088-0.584,1.611-0.909c0.497-0.365,1.039-0.673,1.501-1.084
				c1.932-1.544,3.477-3.552,4.571-5.763c1.111-2.214,1.6-4.703,1.602-7.152c-0.022-4.918-2.199-9.735-5.829-12.949
				c-0.454-0.402-0.901-0.812-1.419-1.13c-0.507-0.33-0.977-0.719-1.532-0.968c-1.026-0.571-2.248-1.061-3.336-1.794
				c-1.09-0.693-2.073-1.624-2.913-2.536c-0.805-0.887-1.783-1.599-2.805-2.21c-2.063-1.208-4.496-1.77-6.864-1.577
				c-1.183,0.106-2.348,0.414-3.419,0.932c-1.079,0.512-2.014,1.283-2.836,2.157c-1.617,1.794-2.397,4.289-2.286,6.747
				c0.017,0.621,0.113,1.221,0.221,1.847c0.089,0.625,0.129,1.256,0.116,1.886C277.641,122.252,277.404,123.501,276.994,124.687z
				 M276.89,124.652c0.382-1.184,0.589-2.423,0.59-3.662c0-0.62-0.052-1.238-0.153-1.848c-0.11-0.603-0.243-1.234-0.297-1.862
				c-0.247-2.513,0.41-5.182,2.036-7.225c0.827-0.989,1.796-1.909,2.971-2.505c1.158-0.612,2.431-0.997,3.73-1.158
				c1.301-0.181,2.626-0.063,3.896,0.223c1.271,0.288,2.509,0.748,3.632,1.411c1.12,0.658,2.189,1.432,3.073,2.393
				c0.859,0.916,1.712,1.706,2.717,2.384c0.979,0.684,2.087,1.143,3.237,1.798c0.585,0.277,1.083,0.695,1.616,1.055
				c0.544,0.348,1.015,0.789,1.49,1.223c3.817,3.464,5.936,8.636,5.739,13.718c-0.073,2.541-0.716,5.054-1.854,7.31
				c-0.595,1.112-1.24,2.203-2.054,3.17c-0.368,0.514-0.801,0.972-1.238,1.427c-0.413,0.48-0.915,0.867-1.385,1.289
				c-3.875,3.247-9.177,4.756-14.258,4.005c-5.068-0.798-9.747-4-12.188-8.501C275.679,134.835,275.308,129.4,276.89,124.652z"/>
		</g>
	</g>
	<g>
		<g>
			<rect x="128.801" y="388.02" style="fill:#A8CAB7;" width="245.08" height="5.441"/>
			<ellipse style="fill:#A8CAB7;" cx="251.342" cy="393.461" rx="122.54" ry="35.381"/>
			<ellipse style="fill:#D3E4DB;" cx="251.342" cy="388.02" rx="122.54" ry="35.381"/>
			<path style="fill:#E4EFE8;" d="M250.541,365.198c27.375,0,53.064,2.477,72.335,6.975c22.157,5.171,27.009,11.048,27.009,12.876
				c0,1.828-4.852,7.704-27.009,12.876c-19.271,4.498-44.96,6.975-72.335,6.975c-27.375,0-53.065-2.477-72.336-6.975
				c-22.157-5.172-27.009-11.048-27.009-12.876c0-1.828,4.852-7.704,27.009-12.876C197.477,367.675,223.166,365.198,250.541,365.198
				 M250.541,360.846c-57.27,0-103.697,10.836-103.697,24.203s46.427,24.203,103.697,24.203c57.27,0,103.697-10.836,103.697-24.203
				S307.811,360.846,250.541,360.846L250.541,360.846z"/>
			<ellipse style="fill:#A8CAB7;" cx="258.714" cy="376.503" rx="87.44" ry="25.246"/>
			<path style="fill:#FF8D6A;" d="M283.699,331.663l1.012-25.9h-60.118c0.425,7.3,1.113,17.674,1.99,25.9H283.699z"/>
			<path style="fill:#FF926E;" d="M242.075,236.374c-0.241,0.683-0.454,1.325-0.834,1.994l0.476,19.268h31.47V234.04
				L242.075,236.374z"/>
			<path style="fill:#A56941;" d="M370.787,185.111c-5.685-1.843-11.262-3.958-16.572-6.713c-5.388-2.795-10.529-6.051-15.506-9.519
				c-6.774-4.719-15.733-13.338-29.747-17.404c-18.648-5.41-35.536-2.764-53.876,8.383c-21.162,12.863-28.924,34.788-18.477,52.344
				c9.743,16.372,31.383,24.667,53.559,23.283c8.845-0.552,27.546-12.766,39.864-10.448c24.312,4.576,16.121,25.107,13.785,33.052
				c4.048,0.391,9.576,0.521,12.738-2.038c3.218,3.249,6.351,9.432,10.007,12.889c11.296,10.682,31.413,14.386,51.482,10.543
				c15.001-2.873,20.257,5.172,21.312,15.169c20.697-10.215,26.28-53.746,7.181-85.397
				C418.97,163.571,392.78,192.24,370.787,185.111z"/>
			<path style="fill:#F0E1D3;" d="M275.61,325.169c-2.876,1.326-5.917,2.242-8.973,3.052c-3.718,0.985-7.41,2.029-11.237,2.505
				c-7.635,0.949-15.265-0.234-22.332-3.098c-29.555,4.558-63.261,12.197-66.573,12.418c-5.13,0.342-5.058,6.515,17.775,21.816
				c38.317,25.677,59.297,20.477,59.297,20.477s18.168-6.498,34.844,0c16.676,6.497,72.856,1.49,74.34-16.977
				C354.167,347.745,300.205,329.484,275.61,325.169z"/>
			<path style="fill:#F57356;" d="M256.112,244.167c0,0,2.075-3.803,3.699-3.21c1.624,0.593,8.994,1.485,8.994,1.485
				s-7.574,0.052-8.904,1.017C258.572,244.425,255.578,245.035,256.112,244.167z"/>
			<path style="fill:#F57356;" d="M252.129,243.852c0,0-1.453-4.082-3.149-3.751c-1.697,0.331-7.659,0.319-7.659,0.319
				s6.015,0.977,7.176,2.139C249.659,243.721,252.52,244.794,252.129,243.852z"/>
			<path style="fill:#D8C5B6;" d="M343.599,351.354c-7.098-1.656-14.324-2.391-21.633-1.301
				c-17.162,2.56-50.372,22.154-61.276,22.154c-16.948,0-30.304-16.126-46.11-20.951c-16.605-5.069-25.087-11.136-42.416-11.996
				c-0.249-0.012-0.491-0.037-0.725-0.072c-2.584,0.505-4.315,0.816-4.944,0.858c-5.13,0.342-5.058,6.515,17.775,21.816
				c38.317,25.677,59.297,20.477,59.297,20.477s18.168-6.497,34.844,0c16.676,6.498,72.856,1.491,74.34-16.976
				C353.13,360.646,349.533,355.883,343.599,351.354z"/>
			<path style="fill:#FF8D6A;" d="M198.876,314.034c0.292-12.586,16.773-69.302,25.768-72.536c0,0,9.188,28.013,4.107,48.974
				c-5.604,23.119-10.47,37.637-10.47,37.637L198.876,314.034z"/>
			<path style="fill:#F0E1D3;" d="M224.112,321.991c1.274,9.565,3.173,18.597,5.9,20.513c11.309,7.945,48.1,15.02,54.775-15.397
				c0.197-0.898,0.38-2.52,0.551-4.694C261.289,330.123,246.432,328.5,224.112,321.991z"/>
			<path style="fill:#FAC855;" d="M272.654,233.919c0,0-4.422,17.925-18.413,17.565c-9.476-0.243-12.976-7.81-12.166-15.11
				c-9.411,2.894-17.431,5.124-17.431,5.124s-0.497,26.969-6.363,41.097c-5.869,14.136,3.945,21.714,4.862,30.964
				c15.374,3.804,37.221,3.154,62.704,0c1.127-25.304,1.498-75.191,1.498-75.191S281.136,235.857,272.654,233.919z"/>
			<g>
				<path style="fill:none;stroke:#FFFFFF;stroke-width:0.5;stroke-linecap:round;stroke-miterlimit:10;" d="M270.789,209.972
					c-2.532,5.498-0.656,40.754-3.297,46.581c-5.959,13.146-14.995,16.295-14.995,16.295s-9.625,55.687,10.785,62.163
					c20.41,6.476,49.007-10.485,54.588,2.518"/>
				<g>
					<path style="fill:#FFFFFF;" d="M239.946,262.131c-3.655-5.349-3.915-33.546-3.929-39.266c-0.009-0.015,0-0.853,0-0.853
						s-0.245-0.382-0.403-0.679c-0.009,2.15-0.168,35.097,3.92,41.079c4.13,6.045,12.761,10.612,12.848,10.658l0.232-0.443
						C252.527,272.582,244.005,268.07,239.946,262.131z"/>
				</g>
			</g>
			<g>
				<g>
					<polygon style="fill:#FF926E;" points="269.281,211.897 264.725,238.368 248.173,238.368 247.596,211.708 					"/>
				</g>
			</g>
			<path style="fill:#F57356;" d="M263.337,217.812c0.246-1.498,0.634-2.695,0.853-5.959l-16.593-0.145l0.483,22.332
				C253.661,233.296,260.989,232.109,263.337,217.812z"/>
			<path style="fill:#FF926E;" d="M247.596,228.695c8.453,0.26,21.893-10.917,22.152-19.37c0,0,1.82-12.886-0.439-16.955
				c-3.923-7.065-20.817-8.249-27.583-7.264c-10.365,1.51-9.058,20.655-9.058,20.655
				C231.847,229.503,247.596,228.695,247.596,228.695z"/>
			<path style="fill:#FF926E;" d="M275.63,206.077c-0.289,3.623-3.76,6.482-8.12,6.364l0.45-13.154
				C272.32,199.404,276.149,199.576,275.63,206.077z"/>
			<path style="fill:#F57356;" d="M271.257,203.664c-0.012-0.497,0.633-0.686,0.9-0.267c0.441,0.693,0.739,1.665,0.229,2.827
				c-0.722,1.643-2.135,3.225-2.747,2.515c-0.612-0.709,0.053-0.525,1.117-2.644C271.176,205.257,271.274,204.374,271.257,203.664z"
				/>
			<path style="fill:none;stroke:#281923;stroke-width:0.7515;stroke-miterlimit:10;" d="M250.123,206.357
				c-0.083,1.056,0.47,1.96,1.236,2.021c0.766,0.061,1.455-0.746,1.538-1.802"/>
			<path style="fill:none;stroke:#281923;stroke-width:0.7515;stroke-miterlimit:10;" d="M236.965,205.15
				c-0.083,1.056,0.47,1.96,1.237,2.021c0.766,0.061,1.455-0.746,1.538-1.802"/>
			<path style="fill:none;stroke:#F57356;stroke-width:0.8563;stroke-miterlimit:10;" d="M257.008,202.147
				c0,0-4.651-3.092-9.37-0.74"/>
			<path style="fill:none;stroke:#F57356;stroke-width:0.8563;stroke-miterlimit:10;" d="M233.61,200.299
				c1.55-0.772,3.092-0.958,4.465-0.858c4.042,0.293,7.052,4.077,5.963,7.981c-0.083,0.299-0.191,0.6-0.326,0.901
				c-1.619,3.605-2.967,4.649-0.288,5.193"/>
			<path style="fill:none;stroke:#F57356;stroke-width:0.8563;stroke-miterlimit:10;" d="M247.214,219.722
				c0,0-3.174,1.898-5.909-0.955"/>
			<path style="fill:#F57356;" d="M257.284,211.805c-0.027,0.339,0.226,0.636,0.566,0.662c0.339,0.027,0.636-0.226,0.663-0.566
				c0.027-0.339-0.226-0.636-0.566-0.662C257.607,211.212,257.311,211.465,257.284,211.805z"/>
			<path style="fill:#F57356;" d="M254.445,213.269c-0.012,0.146,0.097,0.273,0.243,0.285c0.146,0.011,0.273-0.098,0.285-0.243
				c0.012-0.146-0.097-0.273-0.243-0.285C254.585,213.014,254.457,213.123,254.445,213.269z"/>
			<path style="fill:#F57356;" d="M257.635,215.181c-0.023,0.298,0.199,0.558,0.496,0.581c0.298,0.023,0.558-0.199,0.581-0.496
				c0.023-0.298-0.199-0.558-0.496-0.581C257.919,214.661,257.659,214.883,257.635,215.181z"/>
			<path style="fill:#F57356;" d="M260.69,212.886c-0.013,0.165,0.11,0.309,0.275,0.322c0.165,0.013,0.309-0.11,0.322-0.275
				c0.013-0.165-0.11-0.309-0.275-0.322C260.847,212.597,260.703,212.721,260.69,212.886z"/>
			<path style="fill:#F57356;" d="M254.34,216.423c-0.02,0.249,0.166,0.467,0.416,0.487s0.467-0.167,0.487-0.416
				c0.02-0.249-0.167-0.467-0.416-0.487C254.578,215.988,254.36,216.174,254.34,216.423z"/>
			<path style="fill:#F57356;" d="M251.356,211.742c-0.018,0.223,0.149,0.418,0.372,0.436c0.223,0.018,0.418-0.149,0.436-0.372
				c0.018-0.223-0.149-0.418-0.372-0.436C251.569,211.353,251.374,211.52,251.356,211.742z"/>
			<path style="fill:#F57356;" d="M251.945,214.569c0.031-0.387-0.258-0.726-0.646-0.756c-0.387-0.031-0.726,0.258-0.756,0.646
				c-0.031,0.387,0.258,0.726,0.645,0.756C251.576,215.245,251.915,214.956,251.945,214.569z"/>
			<path style="fill:#F57356;" d="M267.646,190.323c-5.733-5.241-19.871-6.098-25.921-5.217c-5.917,0.862-8.028,7.469-8.752,12.982
				c6.032-0.882,10.818-3.537,14.434-6.481c1.411,1.184,3.022,2.354,4.85,3.44c2.665,1.584,5.944,2.819,9.107,3.761
				c3.265,0.971,5.707,3.689,6.208,7.058l0.074-0.317V190.323z"/>
			<path style="fill:#F57356;" d="M237.273,210.593c-0.023,0.296,0.198,0.556,0.494,0.579c0.296,0.023,0.556-0.198,0.579-0.494
				c0.023-0.296-0.198-0.556-0.494-0.579C237.555,210.075,237.296,210.296,237.273,210.593z"/>
			<path style="fill:#A8CAB7;" d="M340.921,356.738c-9.689-3.161-53.585,11.445-68.425,22.637
				c-6.305,4.755-12.704,8.479-17.98,11.192c-6.895,3.545-24.233,4.84-24.233,4.84c-0.276,0.759-0.506,1.487-0.701,2.19
				c-8.625,2.528-17.59,3.734-26.587,3.547c-4.233-0.087-8.258,0.075-9.988,0.851c-3.954,1.774-11.217,12.229-8.864,16.554
				c1.307,2.404,7.538,1.175,11.998-0.072c3.955-1.107,7.956-2.034,12.008-2.706l23.655-3.926c0.745,0.805,1.332,1.171,1.332,1.171
				s10.938-0.662,25.754-3.354c2.234-0.406,4.692-0.844,7.308-1.314c0.014,0.004,0.026,0.01,0.04,0.014
				c0,0,20.696,9.411,27.15,12.081c6.948,2.875,19.502-0.912,23.335-10.781c1.171-3.016-7.049-6.273-14.297-8.176
				c-0.287-0.075-0.595-0.146-0.912-0.215c15.982-3.759,31.582-8.52,40.971-14.525C361.078,374.851,350.61,359.899,340.921,356.738z
				"/>
			<g>
				<path style="fill:#BAD6C5;" d="M302.764,401.577c-15.617,2.166-33.525,3.323-52.223,3.323c-19.458,0-38.051-1.257-54.107-3.597
					c-1.46,0.135-2.672,0.352-3.428,0.691c-0.969,0.434-2.136,1.395-3.312,2.653c17.091,2.896,38.112,4.605,60.847,4.605
					c3.862,0,7.673-0.051,11.425-0.147c1.355-0.243,2.764-0.496,4.23-0.759c0.014,0.004,0.026,0.01,0.04,0.014
					c0,0,0.461,0.21,1.252,0.569c16.296-0.625,31.309-2.137,44.106-4.316C309.02,403.444,305.821,402.394,302.764,401.577z"/>
				<path style="fill:#D3E4DB;" d="M303.931,364.298c-2.916,1.04-5.821,2.142-8.647,3.287c10.106,1.146,19.43,2.684,27.592,4.589
					c15.182,3.543,22.238,7.418,25.176,10.094c1.105-1.15,1.991-2.311,2.683-3.471C343.73,372.665,326.673,367.492,303.931,364.298z
					"/>
			</g>
			<path style="fill:#F57356;" d="M236.504,214.263c0.033-0.413-0.275-0.773-0.688-0.806c-0.413-0.033-0.774,0.276-0.806,0.688
				c-0.033,0.413,0.275,0.774,0.688,0.806C236.11,214.984,236.471,214.676,236.504,214.263z"/>
			<path style="fill:#F57356;" d="M234.014,211.217c-0.019,0.241,0.161,0.451,0.401,0.47c0.241,0.019,0.451-0.161,0.47-0.401
				c0.019-0.24-0.161-0.451-0.401-0.47C234.244,210.797,234.033,210.977,234.014,211.217z"/>
			<path style="fill:#FF8D6A;" d="M266.236,401.832c0,0,20.696,9.41,27.15,12.081c6.948,2.875,19.502-0.912,23.335-10.781
				c1.171-3.016-7.049-6.273-14.297-8.176c-7.247-1.903-24.712-1.679-31.121-6.005C264.893,384.626,259.541,400.127,266.236,401.832
				z"/>
			<path style="fill:#F0E1D3;" d="M162.892,341.024c0,0,18.13-6.863,40.391,4.945c22.261,11.809,68.019,42.982,68.019,42.982
				s5.348,10.353-5.066,12.88c0,0-43.962-13.633-65.361-16.763c-21.398-3.13-40.08-21.233-42.371-31.995
				C156.214,342.312,162.892,341.024,162.892,341.024z"/>
			<path style="fill:#FF8D6A;" d="M143.93,282.047c0.462-0.249,1.026-0.201,1.482,0.06c1.092,0.624,3.831,2.061,6.601,2.503
				c3.325,0.53,8.132,3.574,7.666,9.427c-0.406,5.098-4.558,9.583-18.544,9.375c-5.32-0.079-7.646-1.6-9.298-2.564
				c-2.69-1.57-2.422-2.87-1.684-3.03c1.191-0.259,4.869,2.849,11.664,2.444c5.216-0.311,2.606-1.072-0.735-1.046
				c-1.209,0.009-8.725-0.318-11.988-6.122c-0.325-0.578-0.403-1.285-0.119-1.884c0.358-0.756,1.178-1.266,3.043,0.91
				c3.108,3.626,8.611,4.5,10.748,3.859c1.554-0.466-1.146-1.098-2.7-1.201c-1.554-0.104-6.339-1.415-8.178-4.704
				c-1.318-2.358,0.337-3.189,1.685-2.435c0.809,0.453,1.834,1.357,2.951,2.513c2.547,2.636,6.604,2.046,6.656,1.062
				c0.042-0.802-4.714-0.207-5.801-3.056c-0.992-2.599,1.377-5.982,5.23-5.762c0.555,0.032,0.844,0.661,0.491,1.091
				c-0.467,0.569-1.222,1.361-2.38,2.262c-1.273,0.99,0.288,1.478,2.153,1.565c1.551,0.073,3.313-0.132,3.83-0.555
				c0,0-4.798-2.669-3.082-4.48C143.712,282.183,143.818,282.107,143.93,282.047z"/>
			<path style="fill:#FF8D6A;" d="M154.182,297.504c0,0,30.659,23.725,42.842,26.788c5.366,1.349,21.258,3.817,21.258,3.817
				l-6.828-22.243l-53.979-18.313L154.182,297.504z"/>
			<path style="fill:#A56941;" d="M256.038,179.665c0,0-9.23,18.338-29.464,16.996c0,0-0.326-13.435,6.568-19.298
				C240.037,171.499,256.038,179.665,256.038,179.665z"/>
			<path style="fill:#FF8D6A;" d="M287.345,238.368c0,0-13.128,20.364-8.839,48.784c2.288,15.164,13.466,39.67,13.466,39.67
				s6.925-1.438,11.625-6.011C308.887,315.664,309.535,247.911,287.345,238.368z"/>
			<path style="fill:#FF8D6A;" d="M366.061,276.989c-0.462-0.249-1.026-0.201-1.482,0.06c-1.092,0.624-3.831,2.061-6.601,2.503
				c-3.325,0.53-8.132,3.574-7.666,9.427c0.406,5.098,4.558,9.583,18.544,9.375c5.32-0.079,7.646-1.6,9.298-2.564
				c2.69-1.57,2.422-2.87,1.683-3.03c-1.191-0.259-4.869,2.849-11.664,2.444c-5.216-0.311-2.606-1.072,0.735-1.046
				c1.209,0.009,8.725-0.318,11.988-6.122c0.325-0.578,0.403-1.285,0.119-1.884c-0.358-0.756-1.178-1.266-3.043,0.91
				c-3.108,3.626-8.611,4.5-10.748,3.859c-1.554-0.466,1.146-1.098,2.7-1.201c1.554-0.104,6.339-1.415,8.178-4.704
				c1.318-2.358-0.337-3.189-1.685-2.435c-0.809,0.453-1.834,1.357-2.951,2.513c-2.547,2.636-6.604,2.046-6.656,1.062
				c-0.042-0.802,4.714-0.207,5.801-3.056c0.992-2.599-1.377-5.982-5.23-5.762c-0.555,0.032-0.844,0.661-0.491,1.091
				c0.467,0.569,1.222,1.361,2.38,2.262c1.273,0.99-0.288,1.478-2.153,1.565c-1.551,0.073-3.313-0.132-3.83-0.555
				c0,0,4.798-2.669,3.082-4.48C366.279,277.125,366.173,277.049,366.061,276.989z"/>
			<path style="fill:#FF8D6A;" d="M355.81,292.447c0,0-28.341,26.322-40.084,30.782c-14.195,5.39-23.755,3.594-23.755,3.594
				l8.842-21.741l51.704-22.585L355.81,292.447z"/>
			<path style="fill:none;stroke:#D8C5B6;stroke-width:1.0297;stroke-linecap:round;stroke-miterlimit:10;" d="M246.432,328.898
				c0,0-0.521,23.741,9.667,39.736"/>
			<g>
				<path style="fill:#D8C5B6;" d="M196.838,343.002l16.789,12.392c5.607,4.112,11.18,8.269,16.847,12.295
					c5.626,4.081,11.298,8.099,17.059,11.98c2.887,1.929,5.771,3.87,8.752,5.647c0.741,0.452,1.465,0.935,2.22,1.362l2.274,1.265
					c1.491,0.903,3.111,1.522,4.684,2.276c-1.61-0.641-3.287-1.178-4.815-2.019l-2.343-1.163c-0.778-0.393-1.525-0.842-2.289-1.26
					c-3.049-1.692-5.991-3.559-8.942-5.408c-5.874-3.747-11.551-7.78-17.235-11.798c-5.621-4.105-11.21-8.253-16.714-12.512
					l-8.21-6.446C202.216,347.419,199.496,345.25,196.838,343.002z"/>
			</g>
			<path style="fill:#FF8D6A;" d="M232.355,390.219L232.355,390.219c-9.467,3.117-19.396,4.602-29.361,4.396
				c-4.234-0.087-8.258,0.075-9.988,0.851c-3.954,1.774-11.217,12.229-8.864,16.554c1.307,2.403,7.538,1.176,11.998-0.072
				c3.955-1.107,7.956-2.033,12.008-2.706l25.989-4.313C234.137,404.928,244.573,395.251,232.355,390.219z"/>
			<path style="fill:#F0E1D3;" d="M254.516,384.038c5.276-2.712,11.675-6.437,17.98-11.192
				c14.84-11.191,58.736-25.797,68.425-22.637s20.158,18.113,1.562,30.006c-18.596,11.893-61.549,18.911-83.594,22.916
				c-14.816,2.692-25.754,3.354-25.754,3.354s-7.547-4.679-2.852-17.608C230.283,388.878,247.621,387.582,254.516,384.038z"/>
			<g>
				<path style="fill:#D8C5B6;" d="M230.283,391.649c2.075,0.126,4.154,0.047,6.22-0.12c1.035-0.06,2.062-0.219,3.092-0.326
					c1.023-0.164,2.05-0.302,3.067-0.495c4.074-0.739,8.085-1.814,11.964-3.25c3.866-1.466,7.642-3.158,11.261-5.158
					c3.579-2.051,7.06-4.321,10.523-6.617c6.984-4.494,13.81-9.258,21.006-13.472c3.604-2.092,7.305-4.033,11.142-5.667
					c3.847-1.607,7.808-2.937,11.853-3.905c-7.995,2.325-15.537,5.902-22.59,10.252c-7.072,4.33-13.896,9.082-20.848,13.652
					c-3.482,2.271-6.984,4.52-10.634,6.576c-3.681,1.982-7.498,3.717-11.449,5.082C246.994,390.867,238.59,392.392,230.283,391.649z
					"/>
			</g>
			<path style="fill:#FAC855;" d="M279.012,300.356c0,0,22.759-5.348,29.707-7.705c0,0-1.176-48.737-21.374-54.283
				C267.147,232.822,279.012,300.356,279.012,300.356z"/>
			<path style="fill:#FAC855;" d="M199.954,292.651c0,0,0.24,6.028,25.395,13.694l-0.705-64.848
				C224.644,241.498,213.849,244.698,199.954,292.651z"/>
			<g>
				<path style="fill:#FFA50A;" d="M226.572,257.435c-0.273,2.01-0.673,3.998-1.067,5.989c-0.43,1.982-0.917,3.953-1.436,5.917
					c-1.078,3.917-2.383,7.786-4.188,11.48c-0.993,1.864-2.087,3.445-2.481,5.367c-0.463,1.898-0.349,3.903-0.111,5.866
					c0.266,1.969,0.787,3.915,1.459,5.808c0.648,1.905,1.461,3.757,2.388,5.558c-2.224-3.387-3.908-7.18-4.674-11.234
					c-0.38-2.02-0.476-4.141-0.03-6.206c0.248-1.019,0.536-2.048,1.06-2.977c0.462-0.994,0.983-1.754,1.421-2.674
					c1.834-3.548,3.118-7.388,4.357-11.222c0.612-1.922,1.185-3.86,1.72-5.809C225.556,261.355,226.059,259.396,226.572,257.435z"/>
			</g>
			<g>
				<path style="fill:#FFA50A;" d="M277.645,258.611l-0.42,10.441c-0.114,3.478-0.249,6.952-0.329,10.428
					c-0.113,3.475-0.144,6.951-0.199,10.429c-0.028,1.739-0.035,3.479-0.016,5.219c-0.046,1.743,0.032,3.481-0.005,5.228
					c-0.43-3.463-0.696-6.947-0.816-10.435c-0.143-3.488-0.14-6.98-0.051-10.469c0.107-3.488,0.271-6.975,0.584-10.451
					C276.696,265.526,277.067,262.055,277.645,258.611z"/>
			</g>
			<g>
				<path style="fill:#FFA50A;" d="M230.283,298.361c2.95-1.144,6.031-1.95,9.181-2.439c1.576-0.247,3.177-0.356,4.791-0.338
					c0.809,0.031,1.617,0.097,2.425,0.241c0.798,0.138,1.632,0.38,2.354,0.613c2.976,0.967,6.012,1.727,9.094,2.255
					c1.541,0.266,3.098,0.449,4.662,0.553c1.565,0.14,3.138,0.156,4.719,0.152c-1.563,0.249-3.148,0.341-4.736,0.381
					c-1.588,0.004-3.178-0.088-4.761-0.257c-3.169-0.34-6.282-1.09-9.311-2.048c-2.893-1.079-6.031-0.978-9.137-0.724
					c-1.556,0.137-3.107,0.378-4.652,0.66C233.36,297.665,231.822,298.004,230.283,298.361z"/>
			</g>
			<path style="fill:#A56941;" d="M268.355,182.992c-6.173-2.472-29.415-3.563-29.415-3.563s3.582,8.167,13.318,13.952
				c2.665,1.584,5.944,2.819,9.107,3.76c3.264,0.972,5.707,3.689,6.208,7.058l0,0l0.193-0.824c0.566-2.424,2.885-4.012,5.354-3.693
				h0.001C273.12,199.682,274.528,185.464,268.355,182.992z"/>
			<path style="fill:#A56941;" d="M264.19,198.559c0,0,3.024,1.875,2.544,9.821l1.857-2.34c0,0-0.425-6.086,3.441-6.375
				L264.19,198.559z"/>
			<g>
				<path style="fill:#D8C5B6;" d="M284.787,327.107c-0.703,0.476-1.324,1.035-1.866,1.668c-0.56,0.612-1.063,1.271-1.535,1.948
					c-0.933,1.363-1.739,2.814-2.412,4.33c-0.721,1.495-1.277,3.067-1.859,4.636l-1.566,4.808c0.062-0.847,0.191-1.686,0.285-2.534
					c0.147-0.837,0.326-1.67,0.511-2.503c0.222-0.823,0.462-1.644,0.731-2.456c0.307-0.799,0.587-1.609,0.964-2.383
					c0.715-1.559,1.598-3.058,2.709-4.383C281.845,328.924,283.179,327.711,284.787,327.107z"/>
			</g>
			<g>
				<path style="fill:#D8C5B6;" d="M267.51,330.123c2.561-1.546,5.425-2.529,8.356-3.142c1.472-0.284,2.972-0.451,4.475-0.466
					c1.504-0.011,3.012,0.191,4.447,0.592c-1.496-0.004-2.952,0.069-4.404,0.211c-1.448,0.176-2.889,0.379-4.318,0.673
					c-1.432,0.28-2.853,0.622-4.276,0.979C270.37,329.344,268.943,329.712,267.51,330.123z"/>
			</g>
			<g>
				<path style="fill:#D8C5B6;" d="M225.177,328.898c1.33,0.82,2.514,1.878,3.552,3.053c1.05,1.169,1.962,2.465,2.726,3.842
					c0.752,1.383,1.399,2.831,1.813,4.35c0.472,1.5,0.663,3.074,0.733,4.625c-0.488-1.485-0.945-2.942-1.535-4.348
					c-0.561-1.413-1.222-2.779-1.961-4.099c-0.716-1.334-1.551-2.602-2.435-3.841C227.172,331.252,226.235,330.04,225.177,328.898z"
					/>
			</g>
			<g>
				<path style="fill:#D8C5B6;" d="M236.788,332.099l-5.807-1.568l-2.889-0.77c-0.966-0.266-1.939-0.518-2.915-0.864
					c2.055-0.203,4.104,0.079,6.084,0.583c0.985,0.278,1.958,0.602,2.891,1.031C235.083,330.937,235.994,331.432,236.788,332.099z"
					/>
			</g>
			<g>
				<path style="fill:#965028;" d="M257.008,170.749c4.13-1.407,8.453-2.209,12.793-2.671c4.346-0.439,8.734-0.525,13.099-0.208
					c8.734,0.59,17.359,2.762,25.399,6.252c4.029,1.75,7.876,3.825,11.736,5.858c3.858,2.043,7.663,4.176,11.487,6.259
					c3.823,2.084,7.677,4.098,11.617,5.912c3.94,1.813,7.98,3.394,12.105,4.715c8.266,2.597,16.831,4.193,25.465,5.151
					c8.647,1.005,17.32,1.284,26.068,1.593c8.746,0.517,17.577,2.906,24.836,7.957c3.62,2.503,6.788,5.641,9.33,9.212
					c2.537,3.564,4.539,7.544,5.596,11.78c-2.536-8.344-8.128-15.643-15.336-20.39c-7.204-4.839-15.885-7.04-24.49-7.41
					c-8.679-0.221-17.457-0.486-26.147-1.443c-8.692-0.931-17.379-2.443-25.737-5.159c-4.173-1.36-8.259-2.985-12.231-4.837
					c-3.971-1.854-7.84-3.901-11.662-6.01l-11.425-6.366c-3.82-2.09-7.625-4.222-11.579-5.986
					c-7.91-3.556-16.424-5.757-25.076-6.537c-4.326-0.397-8.691-0.395-13.027-0.04C265.501,168.771,261.171,169.445,257.008,170.749
					z"/>
			</g>
			<g>
				<path style="fill:#965028;" d="M273.185,216.912c11.326-2.476,22.879-3.967,34.494-4.423c5.808-0.226,11.64-0.088,17.44,0.531
					c5.786,0.646,11.589,1.757,17.04,4.024c2.718,1.133,5.308,2.634,7.608,4.525c0.555,0.484,1.134,0.973,1.643,1.571
					c0.493,0.581,0.938,1.18,1.351,1.787c0.834,1.213,1.602,2.442,2.387,3.655c1.561,2.429,3.197,4.79,5.035,6.986
					c1.848,2.183,3.89,4.197,6.137,5.958c4.501,3.528,9.942,5.773,15.6,6.76c2.831,0.508,5.718,0.701,8.604,0.703l2.167-0.038
					l2.164-0.146c1.447-0.062,2.878-0.295,4.321-0.434c-5.697,1.036-11.569,1.379-17.363,0.573
					c-5.769-0.872-11.407-3.051-16.123-6.586c-4.768-3.49-8.422-8.239-11.571-13.105c-0.798-1.213-1.575-2.436-2.391-3.605
					c-0.405-0.588-0.831-1.149-1.279-1.67c-0.433-0.506-0.966-0.952-1.506-1.416c-2.189-1.779-4.68-3.188-7.306-4.285
					c-5.254-2.229-10.949-3.371-16.654-4.046c-5.722-0.666-11.503-0.786-17.277-0.719c-5.777,0.095-11.552,0.486-17.309,1.075
					C284.637,215.144,278.897,215.928,273.185,216.912z"/>
			</g>
			<g>
				<path style="fill:#965028;" d="M280.168,191.813c2.807,2.089,5.968,3.632,9.184,4.953c3.237,1.282,6.565,2.342,9.971,3.054
					c6.783,1.557,13.778,2.036,20.718,1.838l5.24-0.16l2.641-0.061c0.88-0.004,1.76,0.065,2.64,0.095l2.641,0.117l2.629,0.286
					c0.875,0.109,1.756,0.17,2.626,0.319l2.605,0.472c1.749,0.259,3.44,0.789,5.159,1.197c0.862,0.197,1.686,0.528,2.531,0.786
					c0.834,0.291,1.693,0.516,2.507,0.861c3.305,1.261,6.499,2.812,9.537,4.635c5.984,3.765,11.373,8.614,15.272,14.57
					c3.757,5.764,9.376,10.159,15.76,12.788l1.186,0.52c0.401,0.16,0.814,0.292,1.22,0.439l2.45,0.857l2.506,0.693l1.254,0.347
					l1.274,0.267l2.55,0.534c0.85,0.18,1.717,0.271,2.575,0.411l2.581,0.385l2.6,0.252c6.935,0.71,13.934,0.694,20.921,0.471
					c-6.969,0.551-13.983,0.711-20.982,0.238l-2.624-0.199l-2.612-0.338c-0.869-0.125-1.746-0.201-2.609-0.366l-2.591-0.491
					l-1.296-0.246l-1.28-0.327l-2.561-0.656l-2.515-0.826c-0.418-0.143-0.841-0.269-1.254-0.425l-1.225-0.508
					c-6.609-2.523-12.489-7.149-16.428-13.087c-3.812-5.75-9.088-10.432-14.931-14.066c-2.947-1.792-6.05-3.325-9.27-4.576
					c-0.793-0.343-1.631-0.567-2.444-0.856c-0.824-0.257-1.627-0.587-2.469-0.784c-1.679-0.408-3.331-0.939-5.044-1.203
					l-2.551-0.479c-0.852-0.152-1.717-0.216-2.575-0.329l-2.581-0.298l-2.596-0.13c-0.866-0.034-1.731-0.109-2.597-0.11
					l-2.602,0.035l-5.243,0.061c-7.021,0.064-14.084-0.545-20.904-2.262c-3.415-0.825-6.741-1.999-9.957-3.391
					C286.003,195.702,282.882,194.028,280.168,191.813z"/>
			</g>
			<g>
				<path style="fill:#965028;" d="M226.574,196.661c2.991,0.027,5.945-0.426,8.778-1.233c2.821-0.836,5.57-1.935,8.069-3.485
					c0.653-0.338,1.227-0.804,1.845-1.199l0.912-0.618c0.297-0.215,0.568-0.466,0.858-0.691l1.715-1.389
					c0.521-0.52,1.052-1.03,1.589-1.538l0.803-0.765c0.251-0.271,0.485-0.557,0.729-0.835l1.454-1.683
					c0.956-1.137,1.768-2.386,2.71-3.559c-0.73,1.3-1.461,2.619-2.283,3.878l-1.356,1.807c-0.229,0.299-0.449,0.607-0.686,0.901
					l-0.766,0.834c-0.509,0.559-1.023,1.115-1.548,1.661l-1.716,1.492c-0.289,0.246-0.57,0.501-0.873,0.729l-0.935,0.65
					c-0.634,0.416-1.224,0.904-1.896,1.26c-2.599,1.579-5.471,2.695-8.423,3.359c-1.477,0.335-2.98,0.529-4.482,0.646
					C229.566,196.92,228.053,196.926,226.574,196.661z"/>
			</g>
		</g>
	</g>
</g>
</svg>
